<?xml version="1.0" standalone="no"?>
<!DOCTYPE svg PUBLIC "-//W3C//DTD SVG 20010904//EN"
 "http://www.w3.org/TR/2001/REC-SVG-20010904/DTD/svg10.dtd">
<svg version="1.0" xmlns="http://www.w3.org/2000/svg"
 width="128.000000pt" height="175.000000pt" viewBox="0 0 128.000000 175.000000"
 preserveAspectRatio="xMidYMid meet">

<g transform="translate(0.000000,175.000000) scale(0.100000,-0.100000)"
fill="#000000" stroke="none">
<path d="M561 1698 c0 -13 4 -32 9 -43 7 -16 9 -13 9 17 1 20 -3 40 -9 43 -6
3 -10 -4 -9 -17z"/>
<path d="M598 1713 c6 -2 12 -18 12 -34 0 -16 5 -29 10 -29 6 0 10 13 10 29 0
16 6 32 13 34 6 3 -4 5 -23 5 -19 0 -29 -2 -22 -5z"/>
<path d="M667 1713 c-4 -3 -7 -19 -7 -34 0 -19 6 -30 21 -34 11 -4 23 -4 26
-1 4 3 -1 6 -10 6 -26 0 -30 20 -5 29 17 7 19 10 6 10 -26 1 -22 19 5 24 20 4
20 4 -4 6 -14 0 -29 -2 -32 -6z"/>
<path d="M506 1683 c10 -49 13 -53 30 -46 15 5 15 7 0 15 -9 5 -16 20 -16 33
0 14 -5 25 -10 25 -6 0 -8 -12 -4 -27z"/>
<path d="M737 1703 c-13 -13 -7 -61 9 -67 25 -10 29 -7 10 7 -25 18 -17 52 11
51 12 0 20 3 17 8 -6 10 -38 11 -47 1z"/>
<path d="M802 1675 c-16 -35 -15 -56 2 -27 l13 24 13 -32 13 -32 13 24 c7 12
13 30 13 38 0 9 -5 5 -12 -8 l-11 -23 -16 31 -16 31 -12 -26z"/>
<path d="M425 1679 c-10 -15 3 -56 19 -62 8 -3 25 2 37 12 18 15 20 21 10 39
-12 23 -55 30 -66 11z m53 -27 c3 -16 -2 -22 -16 -22 -21 0 -36 25 -26 41 10
17 39 5 42 -19z"/>
<path d="M353 1652 c-8 -5 -6 -17 8 -42 10 -19 18 -29 19 -21 0 8 7 22 16 32
26 29 -8 53 -43 31z m38 -17 c-1 -15 -24 -12 -29 3 -3 9 2 13 12 10 10 -1 17
-7 17 -13z"/>
<path d="M881 1634 c-17 -38 -6 -42 14 -5 8 17 12 31 7 31 -5 0 -14 -12 -21
-26z"/>
<path d="M912 1628 c-18 -18 -14 -46 8 -58 24 -13 27 -2 3 15 -15 11 -15 15
-3 30 7 9 22 14 32 12 10 -3 16 -1 12 4 -8 13 -38 11 -52 -3z"/>
<path d="M261 1596 c-9 -11 -7 -20 12 -42 21 -24 27 -26 41 -15 9 7 16 21 16
30 0 37 -46 55 -69 27z m49 -11 c10 -12 10 -18 0 -30 -11 -14 -14 -13 -27 5
-23 32 2 55 27 25z"/>
<path d="M970 1570 c-20 -15 -21 -20 -8 -20 9 0 21 -8 27 -17 12 -22 17 -17
26 25 8 38 -7 42 -45 12z m30 -10 c0 -5 -4 -10 -10 -10 -5 0 -10 5 -10 10 0 6
5 10 10 10 6 0 10 -4 10 -10z"/>
<path d="M210 1539 c1 -8 7 -25 14 -38 11 -19 14 -21 19 -7 4 9 13 16 22 16
21 0 19 17 -2 23 -10 2 -26 8 -35 12 -12 5 -18 3 -18 -6z m40 -18 c0 -17 -18
-21 -24 -6 -3 9 0 15 9 15 8 0 15 -4 15 -9z"/>
<path d="M1050 1515 c-19 -21 -21 -27 -10 -40 28 -34 87 5 64 42 -16 26 -28
26 -54 -2z m46 -6 c10 -17 -23 -46 -38 -31 -8 8 -8 15 2 27 15 18 26 19 36 4z"/>
<path d="M442 1518 c-29 -29 -1 -75 40 -65 38 10 63 -17 59 -64 -3 -47 16 -82
59 -104 36 -19 41 -62 10 -90 -28 -25 -25 -61 5 -81 23 -15 27 -15 50 0 30 20
33 56 5 81 -30 27 -26 71 8 89 49 25 64 50 61 101 -3 53 12 70 65 70 35 0 56
27 40 53 -17 26 -68 23 -72 -5 -2 -12 -14 -29 -28 -38 -22 -14 -27 -14 -46 0
-13 8 -38 15 -58 15 -20 0 -45 -7 -58 -15 -19 -14 -24 -14 -47 1 -14 9 -23 19
-21 22 3 2 1 13 -5 23 -11 21 -49 25 -67 7z"/>
<path d="M155 1490 c-10 -11 -16 -21 -14 -23 2 -1 14 -11 26 -21 19 -15 25
-16 38 -6 21 17 19 47 -4 60 -26 13 -25 13 -46 -10z m55 -25 c0 -23 -16 -26
-35 -5 -22 24 -12 44 16 30 10 -6 19 -17 19 -25z"/>
<path d="M1100 1455 c-19 -20 -21 -27 -10 -40 7 -8 15 -13 18 -10 3 2 -1 11
-8 20 -10 12 -10 15 2 15 8 0 20 -6 28 -12 12 -11 12 -10 1 5 -16 20 -6 36 11
19 20 -20 32 -13 13 8 -23 25 -27 25 -55 -5z"/>
<path d="M120 1445 c0 -8 42 -44 53 -45 17 0 5 17 -23 33 -16 10 -30 15 -30
12z"/>
<path d="M303 1378 l-51 -53 24 -30 23 -31 -23 -58 c-26 -65 -38 -76 -78 -76
l-28 0 0 -79 0 -79 41 -7 c22 -4 43 -13 46 -21 6 -15 43 -20 43 -5 0 35 -21
60 -52 63 -31 3 -33 5 -36 45 -3 42 -3 43 36 49 34 5 41 11 46 36 3 16 17 52
31 80 l25 50 -21 30 -22 30 30 30 31 30 30 -22 c28 -21 31 -21 59 -6 18 9 32
25 35 41 6 30 6 30 -34 9 -29 -15 -32 -15 -59 5 -15 12 -32 21 -36 21 -5 0
-32 -24 -60 -52z"/>
<path d="M879 1408 c-25 -19 -28 -19 -57 -4 -40 20 -40 20 -35 -7 3 -13 18
-32 35 -41 29 -18 31 -18 60 4 l30 22 31 -30 30 -30 -22 -30 -21 -30 25 -47
c13 -26 27 -62 31 -80 5 -29 10 -33 45 -39 40 -6 40 -6 37 -49 -3 -38 -5 -42
-33 -45 -36 -4 -40 -8 -49 -44 -5 -23 -3 -28 13 -28 10 0 21 6 24 14 3 8 24
17 46 21 l41 7 0 79 0 79 -27 0 c-41 0 -53 11 -78 75 l-24 58 24 31 24 32 -52
52 c-29 29 -57 52 -62 51 -6 0 -22 -9 -36 -21z"/>
<path d="M90 1405 c-13 -16 -7 -45 9 -45 5 0 13 5 16 10 3 6 13 10 21 10 12 0
13 -4 3 -22 -11 -21 -11 -22 4 -9 10 7 17 19 17 27 0 19 -20 28 -33 15 -6 -6
-17 -11 -25 -11 -12 0 -12 3 -2 15 7 9 11 18 8 20 -3 3 -11 -1 -18 -10z"/>
<path d="M1165 1390 c-3 -6 -3 -19 0 -30 8 -25 -10 -26 -24 -2 -9 14 -10 14
-11 2 0 -22 19 -40 36 -33 8 3 14 17 14 32 1 25 1 25 15 7 11 -15 15 -16 15
-5 0 16 -19 39 -31 39 -4 0 -11 -5 -14 -10z"/>
<path d="M62 1337 c-21 -24 -16 -38 16 -52 17 -8 32 -10 32 -5 0 4 -6 11 -12
13 -8 4 -4 8 10 12 12 4 22 11 22 16 0 5 -6 6 -14 3 -7 -3 -16 2 -19 10 -8 19
-21 20 -35 3z m28 -22 c0 -8 -7 -15 -15 -15 -8 0 -15 7 -15 15 0 8 7 15 15 15
8 0 15 -7 15 -15z"/>
<path d="M1188 1318 c-16 -5 -28 -14 -28 -19 0 -9 47 8 65 23 12 11 -2 9 -37
-4z"/>
<path d="M1185 1279 c-16 -7 -14 -8 9 -4 29 6 29 6 13 -19 -10 -14 -17 -28
-17 -31 0 -9 45 -5 60 6 12 8 9 9 -12 5 -32 -7 -34 -4 -12 29 15 24 15 25 -2
24 -11 0 -28 -5 -39 -10z"/>
<path d="M31 1263 c0 -13 -1 -26 -1 -30 0 -8 60 -27 65 -21 1 2 6 14 9 28 6
23 6 23 -7 8 -8 -10 -17 -18 -21 -18 -3 0 -6 8 -6 18 -1 15 -2 15 -12 -3 -12
-19 -13 -18 -19 10 -5 23 -7 25 -8 8z"/>
<path d="M381 1202 c9 -42 50 -82 83 -82 12 0 48 -18 79 -41 l57 -40 0 -195 0
-194 -93 0 c-84 0 -96 2 -114 23 -11 12 -23 30 -26 40 -5 12 -15 17 -29 15
-29 -4 -38 -45 -11 -55 10 -3 31 -17 46 -30 26 -21 38 -23 143 -23 l114 0 0
219 0 219 -64 46 c-40 28 -66 55 -70 71 -8 30 -39 51 -87 58 l-37 5 9 -36z
m-33 -503 c-2 -6 -8 -10 -13 -10 -5 0 -11 4 -13 10 -2 6 4 11 13 11 9 0 15 -5
13 -11z"/>
<path d="M856 1230 c-39 -7 -76 -39 -76 -66 0 -7 -29 -34 -65 -59 l-65 -47 0
-219 0 -219 118 0 c108 0 121 2 138 21 10 12 29 25 42 30 17 6 22 16 20 32 -4
28 -45 37 -55 10 -3 -10 -15 -28 -26 -40 -18 -21 -30 -23 -114 -23 l-93 0 0
194 0 195 57 40 c31 23 67 41 80 41 27 0 83 50 83 73 0 9 3 22 6 31 3 9 2 15
-2 15 -5 -1 -27 -5 -48 -9z m104 -531 c0 -5 -7 -9 -15 -9 -15 0 -20 12 -9 23
8 8 24 -1 24 -14z"/>
<path d="M37 1192 c24 -21 21 -32 -9 -32 -10 0 -18 -4 -18 -9 0 -5 18 -4 41 2
39 9 41 11 23 24 -10 8 -28 19 -39 24 -18 9 -17 8 2 -9z"/>
<path d="M1200 1181 c6 -12 8 -26 5 -31 -10 -16 7 -12 38 9 32 20 29 25 -21
36 -32 7 -33 6 -22 -14z m40 -5 c0 -11 -19 -15 -25 -6 -3 5 1 10 9 10 9 0 16
-2 16 -4z"/>
<path d="M10 1120 c0 -5 17 -10 38 -9 30 0 33 2 17 9 -28 12 -55 12 -55 0z"/>
<path d="M1213 1122 c-7 -4 -11 -28 -10 -57 2 -46 4 -50 28 -53 14 -2 31 4 38
12 18 22 -3 56 -34 56 -16 0 -25 6 -25 15 0 10 10 15 30 15 17 0 30 5 30 10 0
12 -40 13 -57 2z m45 -80 c3 -17 -2 -22 -18 -22 -25 0 -38 29 -19 41 20 13 34
6 37 -19z"/>
<path d="M400 1084 c0 -9 7 -31 16 -49 15 -32 39 -47 97 -59 l27 -6 0 -126 0
-126 -57 4 c-54 3 -58 1 -61 -20 -4 -27 23 -40 49 -24 10 7 37 12 59 12 l40 0
0 148 c0 136 -2 148 -20 160 -11 6 -26 28 -34 47 -10 23 -23 36 -40 40 -14 3
-37 7 -51 10 -19 4 -25 1 -25 -11z m70 -385 c0 -5 -7 -9 -15 -9 -15 0 -20 12
-9 23 8 8 24 -1 24 -14z"/>
<path d="M826 1090 c-38 -7 -66 -31 -66 -56 0 -7 -11 -21 -25 -32 -25 -20 -25
-22 -25 -166 l0 -146 40 0 c22 0 49 -5 59 -12 26 -16 53 -3 49 24 -3 21 -7 23
-60 20 l-58 -4 0 126 0 126 28 6 c60 13 85 28 98 60 15 37 18 65 7 63 -5 -1
-26 -5 -47 -9z m14 -391 c0 -5 -7 -9 -15 -9 -15 0 -20 12 -9 23 8 8 24 -1 24
-14z"/>
<path d="M28 1081 l24 -6 -21 -19 c-29 -26 -27 -32 14 -34 21 -2 35 2 35 9 0
6 -9 9 -20 6 -26 -7 -25 1 2 30 l21 23 -39 -1 c-30 -1 -34 -2 -16 -8z"/>
<path d="M10 1000 c0 -5 13 -10 30 -10 20 0 30 -5 30 -15 0 -10 -10 -15 -30
-15 -17 0 -30 -5 -30 -11 0 -6 14 -9 33 -7 25 2 33 8 35 27 2 13 -2 28 -10 32
-18 12 -58 11 -58 -1z"/>
<path d="M1205 970 c0 -16 0 -30 1 -30 12 0 64 24 64 30 0 6 -52 30 -64 30 -1
0 -1 -13 -1 -30z m40 0 c-3 -5 -10 -10 -16 -10 -5 0 -9 5 -9 10 0 6 7 10 16
10 8 0 12 -4 9 -10z"/>
<path d="M198 879 c-16 -6 -28 -15 -28 -21 0 -6 7 -7 16 -4 39 15 64 17 84 6
17 -9 29 -9 50 0 21 9 33 9 50 0 17 -9 29 -9 50 0 21 9 33 9 50 0 25 -13 39
-5 22 12 -6 6 -23 10 -39 10 -27 -2 -53 -2 -108 -2 -14 0 -35 0 -47 -1 -13 0
-34 2 -48 5 -14 3 -37 0 -52 -5z"/>
<path d="M803 878 c-13 -6 -23 -15 -23 -20 0 -11 7 -10 32 3 14 8 28 7 48 -1
22 -9 33 -9 50 0 17 9 29 9 48 0 19 -8 32 -8 53 0 19 8 38 9 63 2 47 -13 47 3
0 18 -27 9 -42 9 -64 0 -21 -9 -33 -9 -50 0 -17 9 -29 9 -50 0 -20 -8 -34 -9
-48 -1 -25 13 -30 13 -59 -1z"/>
<path d="M208 837 c-21 -5 -38 -13 -38 -18 0 -5 12 -6 28 -2 15 4 35 6 45 5 9
-2 31 -3 47 -3 17 0 39 0 50 0 64 0 92 0 108 2 9 1 25 -1 35 -6 10 -4 17 -3
17 3 0 18 -53 30 -78 19 -16 -7 -32 -8 -51 -1 -17 7 -36 7 -55 1 -17 -6 -36
-6 -49 0 -14 6 -36 6 -59 0z"/>
<path d="M807 837 c-15 -5 -27 -13 -27 -19 0 -6 7 -7 18 -2 9 4 27 6 40 5 20
-1 45 -2 102 -2 11 0 34 0 50 0 17 0 38 1 48 3 9 1 29 -1 45 -5 40 -11 33 8
-9 21 -25 8 -43 8 -59 0 -16 -7 -33 -7 -52 0 -20 6 -35 6 -48 0 -11 -7 -29 -7
-49 -1 -19 6 -42 6 -59 0z"/>
<path d="M27 816 c-23 -17 -10 -51 20 -52 12 0 20 3 17 8 -3 5 0 15 6 23 10
12 9 15 -3 15 -8 0 -17 4 -19 9 -1 5 -11 4 -21 -3z"/>
<path d="M1230 820 c0 -5 -7 -10 -15 -10 -12 0 -13 -3 -3 -19 12 -20 48 -36
48 -21 0 5 2 14 5 22 3 7 -4 19 -15 26 -12 7 -20 8 -20 2z"/>
<path d="M193 790 c-13 -5 -23 -11 -23 -12 0 -2 74 -3 165 -3 141 0 163 2 148
13 -11 8 -30 11 -48 7 -16 -3 -36 -5 -42 -5 -15 1 -78 2 -95 1 -7 -1 -29 1
-48 4 -19 2 -45 0 -57 -5z"/>
<path d="M797 788 c-15 -11 10 -13 154 -13 154 -1 168 1 139 13 -19 7 -45 11
-59 7 -14 -3 -34 -6 -43 -5 -23 1 -84 2 -100 0 -7 0 -26 2 -43 5 -18 4 -37 1
-48 -7z"/>
<path d="M185 630 c-3 -5 -1 -10 4 -10 6 0 11 5 11 10 0 6 -2 10 -4 10 -3 0
-8 -4 -11 -10z"/>
<path d="M227 633 c-2 -5 0 -19 4 -33 7 -23 7 -22 6 8 -1 33 -3 37 -10 25z"/>
<path d="M277 599 c4 -13 8 -18 11 -10 2 7 -1 18 -6 23 -8 8 -9 4 -5 -13z"/>
<path d="M1088 613 c7 -3 16 -2 19 1 4 3 -2 6 -13 5 -11 0 -14 -3 -6 -6z"/>
<path d="M30 585 c0 -14 8 -29 20 -35 18 -10 20 -8 20 19 0 17 -6 31 -16 35
-23 9 -24 8 -24 -19z"/>
<path d="M1223 599 c-5 -5 -8 -21 -5 -35 3 -19 7 -22 18 -13 15 12 19 59 6 59
-4 0 -13 -5 -19 -11z"/>
<path d="M1070 591 c0 -6 4 -13 10 -16 6 -3 7 1 4 9 -7 18 -14 21 -14 7z"/>
<path d="M410 566 c0 -16 7 -26 23 -30 38 -9 67 4 67 30 0 30 -18 31 -22 2 -2
-15 -10 -23 -23 -23 -13 0 -21 8 -23 23 -4 30 -22 28 -22 -2z"/>
<path d="M520 564 c0 -20 4 -25 16 -20 9 3 23 6 32 6 9 0 24 5 32 10 13 9 13
11 0 20 -8 5 -30 10 -47 10 -29 0 -33 -3 -33 -26z m60 6 c0 -5 -9 -10 -20 -10
-11 0 -20 5 -20 10 0 6 9 10 20 10 11 0 20 -4 20 -10z"/>
<path d="M632 583 c-19 -7 -4 -23 23 -23 13 0 27 -4 30 -10 8 -13 25 -13 25
-1 0 5 -15 13 -32 17 l-33 8 30 7 30 7 -30 0 c-16 0 -36 -2 -43 -5z"/>
<path d="M730 565 c0 -14 5 -25 10 -25 6 0 10 11 10 25 0 14 -4 25 -10 25 -5
0 -10 -11 -10 -25z"/>
<path d="M770 565 c0 -14 5 -25 10 -25 6 0 10 7 10 15 0 14 3 14 30 0 41 -21
50 -19 49 13 -1 16 -3 20 -6 10 -5 -21 -19 -22 -53 -3 -35 20 -40 19 -40 -10z"/>
<path d="M84 548 c-12 -15 -24 -25 -27 -21 -3 3 -14 3 -23 -1 -13 -5 -14 -9
-4 -21 7 -8 21 -15 31 -15 10 0 23 -10 30 -21 8 -15 8 -19 0 -15 -6 4 -20 4
-32 1 -19 -6 -20 -8 -3 -26 10 -12 25 -17 38 -13 14 3 25 -2 34 -16 10 -16 10
-20 -1 -20 -7 0 -22 -6 -32 -14 -18 -13 -17 -14 8 -30 19 -13 30 -15 45 -7 15
8 24 5 46 -17 28 -30 36 -53 11 -32 -13 11 -20 9 -40 -10 -32 -30 -31 -35 6
-50 26 -11 35 -11 60 4 27 16 31 16 59 -1 33 -19 40 -34 12 -26 -11 2 -25 -6
-39 -26 -19 -25 -20 -30 -7 -35 31 -12 71 -6 89 14 19 21 29 20 85 -3 l25 -10
-29 -6 c-21 -4 -33 -15 -43 -39 l-13 -32 32 0 c39 0 51 7 67 38 9 16 21 22 46
22 18 0 37 -4 40 -10 3 -6 -5 -10 -19 -10 -20 0 -27 -7 -35 -37 -6 -20 -9 -38
-8 -40 2 -1 20 2 41 8 28 8 40 18 48 40 11 32 23 37 32 14 7 -19 40 -19 56 0
18 22 28 18 35 -15 5 -23 14 -32 43 -39 20 -6 38 -9 40 -7 2 2 -1 19 -5 37 -6
23 -17 35 -34 40 -17 4 -20 8 -9 12 49 17 59 15 79 -19 17 -28 26 -34 56 -34
19 0 35 2 35 4 0 1 -5 17 -11 35 -8 24 -17 31 -37 31 -31 0 -21 11 27 30 31
13 35 12 52 -8 12 -15 28 -22 53 -22 45 0 51 11 25 45 -16 19 -28 25 -43 21
-17 -4 -15 0 9 19 36 29 43 30 67 8 16 -14 24 -14 59 -4 l41 12 -27 29 c-22
23 -32 27 -46 19 -27 -14 -23 -2 8 31 22 23 30 27 50 19 19 -7 30 -5 48 9 l24
19 -24 13 c-13 7 -29 9 -37 4 -9 -6 -8 0 3 16 9 14 26 25 37 25 24 1 54 24 46
36 -3 5 -14 9 -24 9 -13 0 -17 5 -14 15 4 8 16 15 29 15 30 0 52 25 29 34 -9
3 -20 3 -26 0 -5 -3 -16 3 -24 15 -8 12 -19 21 -25 21 -14 0 -11 -32 6 -50 13
-14 13 -19 0 -36 -12 -16 -14 -16 -15 -3 0 9 -6 22 -14 28 -11 9 -15 6 -18
-14 -3 -13 1 -33 8 -43 10 -15 9 -22 -8 -42 -15 -19 -18 -21 -14 -6 8 24 -23
63 -36 44 -12 -19 -10 -62 4 -76 10 -10 5 -19 -20 -45 -33 -31 -33 -32 -21 -5
9 21 9 34 -1 58 -7 16 -16 30 -20 30 -4 0 -15 -17 -24 -38 -14 -30 -15 -44 -6
-66 12 -31 3 -48 -34 -68 -19 -10 -20 -10 -8 5 10 11 12 29 7 59 l-8 43 -29
-35 c-24 -29 -28 -41 -23 -70 6 -34 4 -37 -31 -53 -39 -19 -60 -16 -25 3 16 8
21 20 21 50 0 22 -3 40 -6 40 -3 0 -19 -9 -35 -21 -24 -17 -29 -28 -29 -60 0
-21 -1 -39 -3 -39 -1 0 -17 -4 -35 -9 -17 -5 -32 -6 -32 -1 0 4 9 10 20 13 16
4 20 14 20 46 l0 41 -35 -17 c-26 -13 -36 -25 -41 -50 -6 -30 -24 -48 -24 -23
0 13 -47 13 -55 0 -12 -19 -25 -10 -25 19 0 23 -8 34 -36 50 -20 12 -39 20
-41 17 -3 -3 -2 -22 1 -42 5 -24 14 -38 27 -41 10 -3 19 -9 19 -13 0 -5 -15
-4 -32 1 -18 5 -34 9 -35 9 -2 0 -3 15 -3 34 0 26 -8 41 -32 61 l-33 28 -7
-34 c-6 -29 -3 -37 20 -57 l27 -24 -25 7 c-52 15 -67 31 -62 69 3 27 -2 42
-21 66 l-26 30 -11 -36 c-9 -26 -9 -39 -1 -47 23 -23 10 -28 -18 -7 -27 19
-29 23 -19 50 11 34 6 65 -15 94 -14 19 -15 18 -32 -14 -14 -26 -15 -38 -6
-52 17 -27 13 -33 -9 -13 -25 23 -34 53 -21 69 11 14 4 76 -9 76 -12 0 -33
-48 -26 -59 4 -6 3 -11 -2 -11 -5 0 -15 11 -22 25 -10 20 -11 28 -2 37 14 14
16 68 3 68 -6 0 -16 -9 -24 -21 -10 -13 -17 -17 -22 -9 -4 6 -2 17 5 25 6 8
10 26 8 42 l-3 28 -21 -27z m572 -443 c-5 -14 -9 -15 -21 -5 -12 10 -13 16 -4
27 15 18 34 1 25 -22z"/>
<path d="M1062 554 c10 -10 20 -16 22 -13 3 3 -5 11 -17 18 -21 13 -21 12 -5
-5z"/>
<path d="M224 528 c-3 -4 2 -8 10 -8 8 0 17 4 20 8 3 5 -2 9 -10 9 -8 0 -17
-4 -20 -9z"/>
<path d="M448 503 c-40 -2 -68 -8 -68 -15 0 -10 165 -3 196 9 7 3 24 -6 36
-20 l24 -25 22 25 c12 14 28 23 36 20 29 -11 196 -19 196 -10 0 15 -215 27
-239 13 -13 -7 -22 -7 -26 0 -6 10 -33 10 -177 3z"/>
<path d="M228 493 c7 -3 16 -2 19 1 4 3 -2 6 -13 5 -11 0 -14 -3 -6 -6z"/>
<path d="M1020 491 c0 -10 19 -25 25 -20 1 2 -3 10 -11 17 -8 7 -14 8 -14 3z"/>
<path d="M270 449 c0 -5 5 -7 10 -4 6 3 10 8 10 11 0 2 -4 4 -10 4 -5 0 -10
-5 -10 -11z"/>
<path d="M392 448 c3 -9 32 -14 88 -16 74 -3 86 -6 106 -27 31 -33 76 -33 102
0 17 22 27 24 108 27 126 4 113 22 -18 26 -104 3 -107 2 -110 -20 -4 -32 -49
-32 -63 0 -9 21 -16 22 -113 22 -79 0 -103 -3 -100 -12z"/>
<path d="M990 440 c0 -5 5 -10 11 -10 5 0 7 5 4 10 -3 6 -8 10 -11 10 -2 0 -4
-4 -4 -10z"/>
<path d="M306 422 c-2 -4 4 -8 14 -8 10 0 16 4 14 8 -3 4 -9 8 -14 8 -5 0 -11
-4 -14 -8z"/>
<path d="M976 417 c3 -10 9 -15 12 -12 3 3 0 11 -7 18 -10 9 -11 8 -5 -6z"/>
<path d="M956 397 c3 -10 9 -15 12 -12 3 3 0 11 -7 18 -10 9 -11 8 -5 -6z"/>
<path d="M335 389 c-4 -6 -5 -12 -2 -15 2 -3 7 2 10 11 7 17 1 20 -8 4z"/>
<path d="M936 377 c3 -10 9 -15 12 -12 3 3 0 11 -7 18 -10 9 -11 8 -5 -6z"/>
<path d="M911 364 c0 -11 3 -14 6 -6 3 7 2 16 -1 19 -3 4 -6 -2 -5 -13z"/>
<path d="M450 340 c-19 -16 -30 -30 -24 -30 5 0 23 14 39 30 36 38 30 38 -15
0z"/>
<path d="M840 336 c0 -14 4 -27 8 -30 5 -3 6 8 4 25 -5 35 -12 38 -12 5z"/>
<path d="M880 351 c0 -6 4 -13 10 -16 6 -3 7 1 4 9 -7 18 -14 21 -14 7z"/>
<path d="M536 314 c-23 -50 -16 -52 11 -3 12 21 18 39 14 39 -4 0 -15 -16 -25
-36z"/>
<path d="M806 314 c-8 -21 -8 -34 2 -34 4 0 8 11 8 25 2 29 -1 32 -10 9z"/>
<path d="M465 309 c-4 -6 -5 -12 -2 -15 2 -3 7 2 10 11 7 17 1 20 -8 4z"/>
<path d="M495 299 c-4 -6 -5 -12 -2 -15 2 -3 7 2 10 11 7 17 1 20 -8 4z"/>
<path d="M617 303 c-4 -3 -7 -11 -7 -17 0 -6 5 -5 12 2 6 6 9 14 7 17 -3 3 -9
2 -12 -2z"/>
<path d="M700 280 c-6 -11 -8 -20 -6 -20 3 0 10 9 16 20 6 11 8 20 6 20 -3 0
-10 -9 -16 -20z"/>
<path d="M576 273 c-6 -14 -5 -15 5 -6 7 7 10 15 7 18 -3 3 -9 -2 -12 -12z"/>
<path d="M665 279 c-4 -6 -5 -12 -2 -15 2 -3 7 2 10 11 7 17 1 20 -8 4z"/>
<path d="M1136 168 c-22 -30 -20 -60 4 -86 57 -61 142 17 94 86 -8 12 -19 22
-25 22 -5 0 0 -9 11 -20 38 -38 16 -100 -34 -100 -27 0 -56 29 -56 56 0 11 7
30 16 42 8 12 13 22 10 22 -3 0 -12 -10 -20 -22z"/>
<path d="M1161 128 c1 -24 3 -35 6 -25 6 21 12 22 28 0 10 -14 12 -10 11 23
-1 32 -5 40 -23 42 -21 3 -23 0 -22 -40z m39 17 c0 -8 -7 -15 -15 -15 -8 0
-15 7 -15 15 0 8 7 15 15 15 8 0 15 -7 15 -15z"/>
<path d="M656 11 c-4 -5 3 -7 14 -4 23 6 26 13 6 13 -8 0 -17 -4 -20 -9z"/>
</g>
</svg>
